<?xml version="1.0" standalone="no"?>
<!DOCTYPE svg PUBLIC "-//W3C//DTD SVG 20010904//EN"
 "http://www.w3.org/TR/2001/REC-SVG-20010904/DTD/svg10.dtd">
<svg version="1.0" xmlns="http://www.w3.org/2000/svg"
 width="100.000000pt" height="100.000000pt" viewBox="0 0 100.000000 100.000000"
 preserveAspectRatio="xMidYMid meet">

<g transform="translate(0.000000,100.000000) scale(0.100000,-0.100000)"
fill="#000000" stroke="none">
<path d="M272 772 c-35 -29 -36 -56 -2 -67 10 -3 26 -17 35 -31 15 -23 15 -27
1 -43 -15 -17 -22 -51 -10 -51 3 0 14 5 25 11 18 9 19 7 14 -14 -4 -15 1 -39
14 -63 24 -44 24 -44 12 -62 -7 -11 -16 -11 -49 -2 -22 7 -52 10 -67 6 -26 -7
-27 -8 -9 -27 13 -15 15 -22 6 -31 -19 -19 -14 -28 13 -28 28 0 85 -26 85 -38
0 -4 -7 -18 -16 -30 -8 -12 -14 -35 -12 -50 2 -22 9 -28 35 -30 22 -2 35 3 46
18 13 19 16 19 43 5 35 -18 103 -20 138 -3 21 9 29 8 44 -5 10 -10 30 -17 44
-17 36 0 49 51 22 82 -18 19 -18 20 10 45 22 18 38 24 63 21 37 -4 37 -4 22
23 -8 16 -7 25 6 39 15 17 15 18 -14 25 -17 4 -47 1 -67 -5 -49 -16 -61 -4
-46 47 6 21 10 45 10 53 -3 40 2 54 14 42 7 -7 16 -12 20 -12 12 0 9 38 -4 61
-12 18 -8 24 32 59 29 25 41 42 35 48 -44 39 -69 51 -81 41 -8 -6 -14 -19 -14
-29 0 -9 -9 -29 -21 -44 -16 -21 -24 -24 -39 -16 -29 16 -42 12 -35 -9 5 -18
1 -19 -49 -14 -30 3 -69 0 -86 -5 -29 -10 -30 -10 -19 9 14 27 6 34 -21 19
-19 -10 -24 -8 -38 12 -10 12 -21 36 -27 52 -13 39 -24 41 -63 8z m38 -48 c0
-8 5 -14 12 -14 6 0 9 -2 6 -5 -7 -7 -68 24 -68 35 0 13 24 18 38 7 6 -5 12
-16 12 -23z m429 22 c10 -11 6 -17 -20 -30 -18 -9 -35 -14 -37 -11 -3 3 0 5 6
5 7 0 11 3 10 8 -2 11 13 42 22 42 4 0 13 -6 19 -14z m-390 -115 c-35 -30 -49
-25 -15 5 15 14 31 23 34 20 2 -3 -6 -14 -19 -25z m322 3 l24 -27 -27 18 c-16
9 -28 21 -28 26 0 14 5 11 31 -17z m-35 -139 c-4 -14 -2 -34 4 -45 8 -15 6
-21 -9 -30 -27 -14 -36 -13 -22 4 6 7 10 25 9 39 -2 23 -4 25 -18 12 -9 -8
-24 -15 -33 -15 -9 0 -19 -4 -22 -10 -10 -16 -67 -11 -88 8 -15 12 -18 13 -12
2 5 -9 0 -8 -13 4 -28 24 -28 36 1 36 12 0 29 5 37 10 8 5 50 10 94 10 l78 0
-6 -25z m-238 -31 c-1 -22 3 -39 12 -45 11 -8 8 -8 -10 -3 -34 9 -36 12 -22
34 6 11 9 26 6 35 -3 8 -1 15 5 15 7 0 11 -14 9 -36z m89 -72 c0 -25 -4 -28
-24 -24 -12 2 -23 7 -23 11 0 11 15 28 30 34 8 3 15 6 16 6 0 1 1 -12 1 -27z
m85 5 c9 -14 3 -23 -21 -30 -15 -4 -20 2 -23 24 -4 26 -2 28 16 23 12 -4 24
-11 28 -17z m-152 -18 c0 -4 -7 -6 -15 -3 -8 4 -15 10 -15 15 0 4 7 6 15 3 8
-4 15 -10 15 -15z m200 7 c0 -3 -4 -8 -10 -11 -5 -3 -10 -1 -10 4 0 6 5 11 10
11 6 0 10 -2 10 -4z m-153 -58 c-3 -8 -6 -5 -6 6 -1 11 2 17 5 13 3 -3 4 -12
1 -19z m30 0 c-3 -8 -6 -5 -6 6 -1 11 2 17 5 13 3 -3 4 -12 1 -19z m33 12 c0
-5 -5 -10 -11 -10 -5 0 -7 5 -4 10 3 6 8 10 11 10 2 0 4 -4 4 -10z m30 0 c0
-5 -4 -10 -10 -10 -5 0 -10 5 -10 10 0 6 5 10 10 10 6 0 10 -4 10 -10z m-200
-65 c-15 -18 0 -21 18 -3 13 13 15 8 6 -16 -8 -22 -42 -20 -46 2 -5 23 14 54
26 42 6 -6 4 -15 -4 -25z m310 -11 c0 -20 -4 -25 -22 -22 -12 2 -24 9 -26 17
-3 10 0 12 13 7 12 -4 16 -2 12 8 -3 8 -3 17 0 20 11 11 23 -5 23 -30z"/>
</g>
</svg>
